HIERARCHY
ROOT Hip
{
  OFFSET 0.0 0.0 0.0
  CHANNELS 6 Xposition Yposition Zposition Xrotation Yrotation Zrotation
  JOINT LowerSpine
  {
    OFFSET 0.0 9.281100273 -5.022399902
    CHANNELS 3 Xrotation Yrotation Zrotation
    JOINT MiddleSpine
    {
      OFFSET 0.0 8.469799995 0.442400008
      CHANNELS 3 Xrotation Yrotation Zrotation
      JOINT Chest
      {
        OFFSET 0.0 10.480400085 -2.332799911
        CHANNELS 3 Xrotation Yrotation Zrotation
        JOINT Neck
        {
          OFFSET 0.0 23.617099762 -0.4912
          CHANNELS 3 Xrotation Yrotation Zrotation
          JOINT Head
          {
            OFFSET 0.0 13.336799622 3.627599955
            CHANNELS 3 Xrotation Yrotation Zrotation
            End Site
            {
              OFFSET 0.0001 18.635000229 0.556299984
            }
          }
        }
        JOINT LClavicle
        {
          OFFSET 2.384299994 22.791599274 7.808499813
          CHANNELS 3 Xrotation Yrotation Zrotation
          JOINT LShoulder
          {
            OFFSET 13.929599762 3.269200087 -5.289800167
            CHANNELS 3 Xrotation Yrotation Zrotation
            JOINT LForearm
            {
              OFFSET 29.589399338 -0.105099998 -0.256399989
              CHANNELS 3 Xrotation Yrotation Zrotation
              JOINT LHand
              {
                OFFSET 24.683799744 0.071599998 -0.147799999
                CHANNELS 3 Xrotation Yrotation Zrotation
                End Site
                {
                  OFFSET 0.0 1.0 0.0
                }
              }
            }
          }
        }
        JOINT RClavicle
        {
          OFFSET -2.384299994 22.791599274 7.808499813
          CHANNELS 3 Xrotation Yrotation Zrotation
          JOINT RShoulder
          {
            OFFSET -13.932100296 3.26970005 -5.290699959
            CHANNELS 3 Xrotation Yrotation Zrotation
            JOINT RForearm
            {
              OFFSET -29.589399338 -0.105099998 -0.256399989
              CHANNELS 3 Xrotation Yrotation Zrotation
              JOINT RHand
              {
                OFFSET -24.683700562 0.071599998 -0.147799999
                CHANNELS 3 Xrotation Yrotation Zrotation
                End Site
                {
                  OFFSET 0.0 1.0 0.0
                }
              }
            }
          }
        }
      }
    }
  }
  JOINT RThigh
  {
    OFFSET -9.928500175 4.195400238 -0.818400025
    CHANNELS 3 Xrotation Yrotation Zrotation
    JOINT RShin
    {
      OFFSET -0.794499993 -43.184700012 0.0
      CHANNELS 3 Xrotation Yrotation Zrotation
      JOINT RFoot
      {
        OFFSET 0.0 -42.404701233 0.0
        CHANNELS 3 Xrotation Yrotation Zrotation
        JOINT RToe
        {
          OFFSET 0.0 -4.660699844 9.74600029
          CHANNELS 3 Xrotation Yrotation Zrotation
          End Site
          {
            OFFSET 0.0 0.0 6.538199902
          }
        }
      }
    }
  }
  JOINT LThigh
  {
    OFFSET 9.92840004 4.195700169 -0.818400025
    CHANNELS 3 Xrotation Yrotation Zrotation
    JOINT LShin
    {
      OFFSET 0.794499993 -43.185001373 0.0
      CHANNELS 3 Xrotation Yrotation Zrotation
      JOINT LFoot
      {
        OFFSET 0.0 -42.404701233 0.0
        CHANNELS 3 Xrotation Yrotation Zrotation
        JOINT LToe
        {
          OFFSET 0.0 -4.660699844 9.746100426
          CHANNELS 3 Xrotation Yrotation Zrotation
          End Site
          {
            OFFSET 0.0 0.0 6.538199902
          }
        }
      }
    }
  }
}
MOTION
Frames: 17
Frame Time: 0.0333333
1.117799997 87.862098694 3.253499985 -8.649926186 2.476211548 0.086553045 -0.0 0.0 -0.0 1.705608368 5.16843605 6.131734848 4.697690964 18.758239746 22.801929474 -0.0 0.0 -0.0 -0.0 0.0 -0.0 -0.0 0.0 14.007701874 -46.644851685 -64.781532288 -7.335663319 -26.973630905 -81.026268005 -0.339423954 -0.0 0.0 -0.0 0.0 0.0 -11.884431839 -71.166030884 23.124347687 22.073932648 -13.991459846 9.442820549 -10.384353638 -0.0 0.0 -0.0 4.440461159 12.729249954 -2.679352999 12.422028542 12.464739799 -2.506293774 -8.906144142 5.889221191 3.403626204 -0.0 0.0 -0.0 15.734717369 18.174058914 3.925462246 10.692760468 16.628700256 -6.136619091 -5.712049484 13.616528511 7.391159534 -0.104250997 0.0 0.0 
1.167000055 87.861099243 3.319999933 -8.769402504 2.189212561 -0.017433003 -0.0 0.0 -0.0 1.692942619 5.200133324 6.147094727 4.8178339 18.74965477 22.857751846 -0.0 0.0 -0.0 -0.0 0.0 -0.0 -0.0 0.0 14.136090279 -45.026290894 -65.262626648 -5.242037296 -26.402078629 -82.851974487 -0.434609085 -0.0 0.0 -0.0 0.0 0.0 -11.466690063 -70.938972473 21.205450058 23.220228195 -13.79091835 9.691271782 -10.652109146 -0.0 0.0 -0.0 4.527117729 12.830253601 -2.652412415 12.41133213 12.581290245 -2.485764027 -8.846189499 5.989611149 3.457699537 -0.0 0.0 -0.0 15.978580475 18.39635849 3.965364933 10.682069778 16.820444107 -6.317409992 -5.67859745 13.807888031 7.490568638 -0.084890991 0.0 0.0 
1.229699969 87.85559845 3.3829 -8.848593712 1.725732207 -0.17632702 -0.0 0.0 -0.0 1.680230975 5.220682144 6.146655083 4.910375118 18.71423912 22.88064003 -0.0 0.0 -0.0 -0.0 0.0 -0.0 -0.0 0.0 14.24532032 -43.604774475 -65.168746948 -3.378780127 -26.093341827 -84.111434937 -0.53495425 -0.0 0.0 -0.0 0.0 0.0 -11.137579918 -70.937332153 20.118204117 24.775417328 -13.543110847 10.471090317 -11.257198334 -0.0 0.0 -0.0 4.512902737 12.921391487 -2.638791323 12.431030273 12.690717697 -2.390359163 -8.777246475 6.155313492 3.547864437 -0.0 0.0 -0.0 16.250118256 18.459600449 3.925261497 10.600910187 16.870950699 -6.42963028 -5.713863373 14.086291313 7.648319721 -0.049148001 0.0 0.0 
1.264500022 87.846099854 3.429199934 -8.949985504 1.155290961 -0.444123 -0.0 0.0 -0.0 1.641835213 5.263197899 6.156727791 4.990875721 18.668640137 22.890113831 -0.0 0.0 -0.0 -0.0 0.0 -0.0 -0.0 0.0 14.312649727 -42.661392212 -64.877059937 -1.987025261 -25.99912262 -84.930130005 -0.614286602 -0.0 0.0 -0.0 0.0 0.0 -10.883099556 -71.117477417 19.869316101 26.439470291 -13.341033936 11.097084045 -12.061174393 -0.0 0.0 -0.0 4.410050392 13.007038116 -2.511356115 12.53630352 12.785902023 -2.286685944 -8.601155281 6.446948051 3.70352459 -0.0 0.0 -0.0 16.53241539 18.376489639 3.970782518 10.518462181 16.757823944 -6.582541943 -5.892668247 14.624609947 7.971722126 -0.004471 0.0 0.0 
1.262899995 87.82409668 3.476799965 -9.096385956 0.720652819 -0.750177801 -0.0 0.0 -0.0 1.614137053 5.287271976 6.134602547 5.000360012 18.598554611 22.850875854 -0.0 0.0 -0.0 -0.0 0.0 -0.0 -0.0 0.0 14.371800423 -43.031604767 -64.165023804 -2.152848721 -26.459131241 -85.481300354 -0.675246716 -0.0 0.0 -0.0 0.0 0.0 -10.746808052 -71.382415771 20.152069092 27.822275162 -13.310320854 10.835920334 -12.720619202 -0.0 0.0 -0.0 4.335183144 13.084486961 -2.25228858 12.696249008 12.856167793 -2.288980722 -8.436782837 6.808183193 3.898837328 -0.0 0.0 -0.0 16.848939896 18.154556274 4.18253231 10.395467758 16.465579987 -6.906907558 -6.283569813 15.486837387 8.515431404 -3e-06 0.0 0.0 
1.277899981 87.788200378 3.553499937 -9.17688179 0.552825212 -0.95243448 -0.0 0.0 -0.0 1.571022868 5.3247962 6.079996109 4.824901104 18.451171875 22.656801224 -0.0 0.0 -0.0 -0.0 0.0 -0.0 -0.0 0.0 14.409692764 -44.431156158 -62.814537048 -3.602163315 -27.451400757 -85.456184387 -0.692457855 -0.0 0.0 -0.0 0.0 0.0 -10.699641228 -71.716934204 20.910497665 28.875577927 -13.36757946 10.387109756 -13.124440193 -0.0 0.0 -0.0 4.330163479 13.146993637 -2.050338984 12.800620079 12.909669876 -2.351598024 -8.495242119 7.083018303 4.060645103 -0.0 0.0 -0.0 17.180257797 17.757946014 4.332764149 10.079059601 16.018415451 -7.19810915 -6.728569031 16.447885513 9.132527351 -3e-06 0.0 0.0 
1.339699984 87.745903015 3.671799898 -9.098457336 0.581839859 -1.009622455 -0.0 0.0 -0.0 1.515549898 5.377202988 5.985489845 4.406611919 18.228834152 22.244466782 -0.0 0.0 -0.0 -0.0 0.0 -0.0 -0.0 0.0 14.493120193 -45.775020599 -61.073768616 -4.884567738 -28.548675537 -84.259941101 -0.639125705 -0.0 0.0 -0.0 0.0 0.0 -10.696027756 -72.244239807 22.310461044 29.932792664 -13.38669014 10.425709724 -13.855620384 -0.0 0.0 -0.0 4.327455997 13.194439888 -1.997761369 12.829417229 12.953489304 -2.424708843 -8.823984146 7.229341984 4.172479153 -0.0 0.0 -0.0 17.45407486 17.151094437 4.197240353 9.540202141 15.450965881 -7.121891022 -6.995812893 17.348630905 9.68829155 -3e-06 0.0 0.0 
1.393100023 87.703201294 3.805900097 -8.985534668 0.720628858 -1.106458664 -0.0 0.0 -0.0 1.454047561 5.438558102 5.870344162 3.890521049 18.028533936 21.756221771 -0.0 0.0 -0.0 -0.0 0.0 -0.0 -0.0 0.0 14.66328907 -46.927711487 -59.252567291 -5.515823841 -29.620965958 -81.631858826 -0.473381966 -0.0 0.0 -0.0 0.0 0.0 -10.722031593 -72.987930298 24.388124466 30.928501129 -13.399395943 10.483489037 -15.107120514 -0.0 0.0 -0.0 4.312244892 13.233010292 -1.9234519 12.818242073 12.998062134 -2.402461767 -9.104813576 7.277861118 4.224344254 -0.0 0.0 -0.0 17.635847092 16.374134064 4.028281212 9.010633469 14.742338181 -6.7768507 -7.260646343 18.365169525 10.318369865 -3e-06 0.0 0.0 
1.384299994 87.657600403 3.915800095 -8.991374969 0.991422057 -1.412679791 -0.0 0.0 -0.0 1.390797734 5.499316216 5.757591248 3.409426928 17.863861084 21.292074203 -0.0 0.0 -0.0 -0.0 0.0 -0.0 -0.0 0.0 14.804590225 -48.405529022 -57.553085327 -6.077340126 -30.942378998 -77.942565918 -0.327268064 -0.0 0.0 -0.0 0.0 0.0 -10.865699768 -73.722549438 26.724145889 31.424600601 -13.506732941 10.427002907 -15.988542557 -0.0 0.0 -0.0 4.347197056 13.266079903 -1.699605465 12.723957062 13.064678192 -2.090553045 -9.070872307 7.112695694 4.126354218 -0.0 0.0 -0.0 17.7180233 15.497503281 4.237878799 8.742931366 13.851761818 -6.56916666 -7.870298862 19.682180405 11.209148407 -3e-06 0.0 0.0 
1.350999951 87.607597351 4.01609993 -8.998801231 1.518282056 -1.784467936 -0.0 0.0 -0.0 1.32600522 5.557446003 5.64783287 2.796828985 17.61775589 20.646471024 -0.0 0.0 -0.0 -0.0 0.0 -0.0 -0.0 0.0 14.705986977 -50.372142792 -55.897838593 -7.369688988 -32.485012054 -74.130096436 -0.1812682 -0.0 0.0 -0.0 0.0 0.0 -11.163780212 -74.210487366 28.794967651 31.352952957 -13.711436272 10.724480629 -15.890592575 -0.0 0.0 -0.0 4.440489769 13.289112091 -1.450644255 12.510604858 13.147122383 -1.556794286 -8.939706802 6.596190453 3.813246012 -0.0 0.0 -0.0 17.646190643 14.513118744 4.742886066 8.708493233 12.787940025 -6.589334965 -8.709130287 21.120004654 12.242980003 -3e-06 0.0 0.0 
1.324599981 87.567802429 4.163599968 -8.966428757 2.381322384 -2.086286068 -0.0 0.0 -0.0 1.258856893 5.618627071 5.525308132 2.012577772 17.33698082 19.811162949 -0.0 0.0 -0.0 -0.0 0.0 -0.0 -0.0 0.0 14.347941399 -52.278568268 -53.656234741 -9.470819473 -34.122241974 -71.365013123 -0.019601053 -0.0 0.0 -0.0 0.0 0.0 -11.592601776 -74.445678711 30.804758072 30.726903915 -13.997830391 11.146052361 -15.161454201 -0.0 0.0 -0.0 4.651869774 13.300720215 -1.157333016 12.230340004 13.2038517 -1.156854987 -8.835846901 5.852438927 3.376233339 -0.0 0.0 -0.0 17.485704422 13.404541016 5.307925701 8.739039421 11.592769623 -6.588152885 -9.515640259 22.430490494 13.226119995 -3e-06 0.0 0.0 
1.25150001 87.54889679 4.425199986 -9.119707108 3.395138025 -2.434649467 -0.0 0.0 -0.0 1.18994379 5.685171127 5.385465145 1.366149664 17.234024048 19.157749176 -0.0 0.0 -0.0 -0.0 0.0 -0.0 -0.0 0.0 13.828169823 -53.258918762 -50.252433777 -11.606431007 -35.731868744 -70.208572388 0.091797844 -0.0 0.0 -0.0 0.0 0.0 -12.19355011 -74.530479431 33.340724945 29.609928131 -14.388277054 11.071291924 -14.391042709 -0.0 0.0 -0.0 5.169807911 13.3064394 -0.58997786 11.902830124 13.208600044 -1.13143003 -8.610173225 5.257982731 3.02234745 -0.0 0.0 -0.0 17.643295288 12.209980011 5.875654221 8.560373306 10.315901756 -6.343864441 -10.224901199 23.675760269 14.173604012 -3e-06 0.0 0.0 
1.059299946 87.55670166 4.903600216 -9.590900421 4.361402988 -2.909897566 -0.0 0.0 -0.0 1.120659113 5.753461838 5.239699364 1.031939983 17.318189621 18.857290268 -0.0 0.0 -0.0 -0.0 0.0 -0.0 -0.0 0.0 13.276639938 -53.271305084 -46.101028442 -13.382230759 -37.204906464 -69.846679688 0.116448954 -0.0 0.0 -0.0 0.0 0.0 -13.045680046 -74.58290863 36.341274261 28.390022278 -14.829476357 10.743528366 -13.826259613 -0.0 0.0 -0.0 6.160047054 13.318090439 0.328225911 11.422539711 13.176469803 -1.413836002 -8.237137794 4.896913052 2.791339397 -0.0 0.0 -0.0 18.455425262 10.962759018 6.387814999 7.913965225 8.997636795 -5.655881882 -10.754529953 24.863105774 15.049666405 -3e-06 0.0 0.0 
0.732299984 87.600502014 5.596199989 -10.31103611 5.286892414 -3.50057435 -0.0 0.0 -0.0 1.051974297 5.821927071 5.093389034 0.91815865 17.421195984 18.780448914 -0.0 0.0 -0.0 -0.0 0.0 -0.0 -0.0 0.0 12.82005024 -53.064804077 -42.246204376 -14.849801064 -38.577983856 -68.59564209 0.068059057 -0.0 0.0 -0.0 0.0 0.0 -14.194649696 -74.604652405 39.322166443 27.261331558 -15.253573418 10.701120377 -13.335229874 -0.0 0.0 -0.0 7.547372818 13.352732658 1.554480433 10.761701584 13.125548363 -1.859374046 -7.691509247 4.534298897 2.555603504 -0.0 0.0 -0.0 19.829324722 9.688909531 6.83774519 6.847353458 7.662497997 -4.439054012 -11.047990799 25.989229202 15.843057632 -3e-06 0.0 0.0 
0.339899987 87.646598816 6.260099888 -11.046232224 6.057249069 -4.133710384 -0.0 0.0 -0.0 0.984412134 5.89229393 4.942490101 0.856895149 17.48028183 18.754930496 -0.0 0.0 -0.0 -0.0 0.0 -0.0 -0.0 0.0 12.470379829 -52.949764252 -39.062561035 -15.67771244 -39.824287415 -65.615486145 0.04321621 -0.0 0.0 -0.0 0.0 0.0 -15.707147598 -74.57699585 42.087722778 26.332321167 -15.66152668 10.9311409 -12.934370041 -0.0 0.0 -0.0 8.858182907 13.414512634 2.874150038 10.131449699 13.068940163 -2.336400032 -7.114770889 4.255541801 2.371384859 -0.0 0.0 -0.0 21.455789566 8.396447182 7.241510868 5.477118969 6.257629395 -3.147016764 -10.848071098 26.963394165 16.414289474 -3e-06 0.0 0.0 
-0.0744 87.655601501 6.761499882 -11.565980911 6.637444019 -4.707417965 -0.0 0.0 -0.0 0.918694079 5.967979908 4.778341293 0.686242402 17.563673019 18.633712769 -0.0 0.0 -0.0 -0.0 0.0 -0.0 -0.0 0.0 12.034339905 -53.220874786 -36.502082825 -15.992529869 -41.135654449 -61.329566956 0.025586288 -0.0 0.0 -0.0 0.0 0.0 -17.338079453 -74.554504395 44.657707214 25.61397171 -16.048379898 11.410779953 -12.650119781 -0.0 0.0 -0.0 9.718147278 13.485971451 4.0693326 9.701226234 13.017398834 -2.689028502 -6.731637955 4.116993904 2.275779724 -0.0 0.0 -0.0 22.973865509 7.060236931 7.513694763 4.032214165 4.803768158 -1.917834997 -9.377064705 24.24335289 14.222875595 -3e-06 0.0 0.0 
-0.52759999 87.649597168 7.206299782 -11.79583168 7.296767235 -5.205947876 -0.0 0.0 -0.0 0.855834961 6.054210186 4.587378979 0.287058055 17.845720291 18.312503815 -0.0 0.0 -0.0 -0.0 0.0 -0.0 -0.0 0.0 11.272181511 -54.941120148 -35.01322937 -17.004482269 -43.109359741 -56.156719208 -0.05048845 -0.0 0.0 -0.0 0.0 0.0 -18.54776001 -74.284614563 46.885917664 24.579624176 -18.2315979 13.006790161 -11.752639771 -0.0 0.0 -0.0 10.145330429 13.553070068 5.238350868 9.52047348 12.957511902 -2.985447645 -6.389165878 3.801115036 2.086353064 -0.0 0.0 -0.0 23.929172516 5.613540649 7.405301571 3.184267044 3.376472473 0.166798055 -6.518222332 11.113699913 5.841970444 -3e-06 0.0 0.0 
